<svg width="63" height="61" viewBox="0 0 63 61" fill="none" xmlns="http://www.w3.org/2000/svg">
<ellipse cx="31.2792" cy="30.3855" rx="31.2792" ry="30.3855" fill="#111F4D"/>
<g clip-path="url(#clip0)">
<path d="M20.724 38.3905L18.348 40.7665C18.1293 40.7078 17.904 40.6665 17.6667 40.6665C16.196 40.6665 15 41.8625 15 43.3332C15 44.8038 16.196 45.9998 17.6667 45.9998C19.1373 45.9998 20.3333 44.8038 20.3333 43.3332C20.3333 43.0958 20.292 42.8705 20.2333 42.6518L22.6093 40.2758C23.1307 39.7545 23.1307 38.9118 22.6093 38.3905C22.088 37.8692 21.2453 37.8692 20.724 38.3905Z" fill="#F2F4F7"/>
<path d="M31 14C29.5293 14 28.3333 15.196 28.3333 16.6667C28.3333 17.6493 28.8733 18.5 29.6667 18.9627V23.3333C29.6667 24.0693 30.264 24.6667 31 24.6667C31.736 24.6667 32.3333 24.0693 32.3333 23.3333V18.9627C33.1267 18.5 33.6667 17.6493 33.6667 16.6667C33.6667 15.196 32.4707 14 31 14Z" fill="#F2F4F7"/>
<path d="M44.3333 40.6665C44.096 40.6665 43.8707 40.7078 43.652 40.7665L41.276 38.3905C40.7547 37.8692 39.912 37.8692 39.3907 38.3905C38.8693 38.9118 38.8693 39.7545 39.3907 40.2758L41.7667 42.6518C41.708 42.8705 41.6667 43.0958 41.6667 43.3332C41.6667 44.8038 42.8627 45.9998 44.3333 45.9998C45.804 45.9998 47 44.8038 47 43.3332C47 41.8625 45.804 40.6665 44.3333 40.6665Z" fill="#F2F4F7"/>
<path d="M17.6667 27.5334V38.6188L19.3093 36.9761C20.6093 35.6761 22.724 35.6761 24.0227 36.9761C25.3213 38.2761 25.3227 40.3908 24.0227 41.6894L22.9373 42.7748L29.6667 45.4668V32.3334L17.6667 27.5334Z" fill="#F2F4F7"/>
<path d="M34.3333 20.6665V23.3332C34.3333 25.1705 32.8373 26.6665 31 26.6665C29.1627 26.6665 27.6667 25.1705 27.6667 23.3332V20.6665L17.6667 24.6665L31 29.9998L44.3333 24.6665L34.3333 20.6665Z" fill="#F2F4F7"/>
<path d="M37.976 41.6908C36.676 40.3908 36.676 38.2761 37.976 36.9774C39.276 35.6788 41.3907 35.6774 42.6893 36.9774L44.3333 38.6188V27.5334L32.3333 32.3334V45.4668L39.0613 42.7761L37.976 41.6908Z" fill="#F2F4F7"/>
</g>
<defs>
<clipPath id="clip0">
<rect width="32" height="32" fill="white" transform="translate(15 14)"/>
</clipPath>
</defs>
</svg>
