<svg width="273" height="66" viewBox="0 0 273 66" fill="none" xmlns="http://www.w3.org/2000/svg">
<path d="M144.131 2.17625C144.168 2.11455 144.211 2.11455 144.263 2.17625L144.186 2.23795L144.131 2.17625Z" fill="#0124DD"/>
<path d="M78.2274 23.7257C79.0564 21.2746 79.8424 18.9581 80.6112 16.6613C80.7058 16.3808 80.898 16.3163 81.1476 16.2715C85.2985 15.5143 89.4666 14.8692 93.7064 15.0739C96.6984 15.2114 99.5756 15.8087 102.152 17.3792C105.646 19.505 107.243 22.7077 107.47 26.6339C107.602 28.8915 107.226 31.121 106.896 33.3309C106.211 37.8349 105.505 42.3332 104.842 46.8372C104.824 47.0261 104.755 47.2067 104.641 47.3601C104.526 47.5136 104.372 47.6342 104.194 47.7094C101.492 49.1593 98.5601 49.9529 95.5481 50.4353C91.8205 51.0667 88.0185 51.1612 84.2629 50.7157C81.1333 50.3315 78.2159 49.3808 75.9439 47.1317C74.958 46.1447 74.1926 44.9681 73.6964 43.6767C73.2001 42.3852 72.9838 41.007 73.0612 39.6295C73.1387 38.252 73.5081 36.9052 74.146 35.6747C74.784 34.4441 75.6766 33.3566 76.7672 32.4812C79.0965 30.6078 81.8504 29.6767 84.7506 29.0738C89.1425 28.1651 93.5745 28.2885 98.0094 28.6195C98.563 28.6587 98.6835 28.4933 98.7093 28.0109C98.9073 24.6287 96.8304 22.2001 93.1844 21.5466C90.6542 21.0923 88.17 21.4849 85.6858 21.8832C83.151 22.2909 80.656 22.9073 78.2274 23.7257ZM93.7409 33.9283C92.1621 33.9182 90.5851 34.0317 89.0248 34.2676C87.3381 34.5481 85.7001 34.9828 84.3404 36.0765C82.8028 37.3133 82.3926 38.9735 82.6967 40.802C82.9835 42.4707 84.1769 43.3849 85.7231 43.9234C86.4318 44.1671 87.1691 44.3226 87.9176 44.3861C90.6829 44.6469 93.3679 44.1758 96.0358 43.5307C96.2167 43.5074 96.3826 43.42 96.5021 43.2851C96.6216 43.1502 96.6863 42.9772 96.6841 42.7988C97.0484 40.1486 97.4098 37.4956 97.8114 34.851C97.8803 34.3938 97.7254 34.3069 97.3352 34.234C96.1469 34.0422 94.9452 33.94 93.7409 33.9283Z" fill="#114185"/>
<path d="M206.294 42.1958C205.835 43.5588 205.434 44.7787 205.009 45.9986C204.67 46.9998 204.309 47.9926 203.988 49.0022C203.957 49.1567 203.88 49.2989 203.767 49.4107C203.653 49.5225 203.509 49.599 203.351 49.6304C198.962 50.7746 194.516 51.3944 189.983 50.8363C184.82 50.1997 180.551 48.0319 177.935 43.4017C176.326 40.5356 175.815 37.4142 176.033 34.1975C176.449 28.0782 179.057 23.0049 183.905 19.0759C186.851 16.6865 190.287 15.4582 194.068 15.0936C196.676 14.844 199.269 14.8917 201.813 15.5844C206.994 16.9866 210.448 20.9268 211.111 26.1431C211.492 29.1411 211.111 32.0858 210.614 35.0332C210.554 35.4006 210.365 35.4118 210.078 35.4118C208.687 35.4118 207.292 35.4118 205.901 35.4118C199.208 35.4118 192.514 35.4118 185.821 35.4118C185.281 35.4118 185.124 35.5408 185.115 36.0821C185.04 40.4907 187.53 43.4017 191.962 44.1449C195.238 44.7058 198.425 44.2206 201.607 43.542C203.198 43.1942 204.764 42.7445 206.294 42.1958ZM194.59 29.688H201.016C202.978 29.688 202.978 29.688 203.044 27.7697C203.179 23.8855 200.749 21.3531 196.799 21.1372C192.074 20.8764 187.619 24.2221 186.472 29.186C186.377 29.5982 186.472 29.6992 186.902 29.6964C189.458 29.6767 192.008 29.688 194.59 29.688Z" fill="#114185"/>
<path d="M222.789 50.9485C218.576 50.9211 214.395 50.2396 210.402 48.9293C210.003 48.7947 209.897 48.6825 210.041 48.259C210.697 46.3165 211.325 44.3646 211.925 42.4034C212.074 41.921 212.249 41.9602 212.645 42.1453C216.481 43.9795 220.813 44.5766 225.018 43.8505C226.004 43.7036 226.94 43.3286 227.749 42.7567C228.122 42.5033 228.434 42.1711 228.659 41.7847C228.884 41.3983 229.018 40.9673 229.05 40.5237C229.083 40.08 229.013 39.6349 228.846 39.221C228.68 38.8071 228.42 38.4351 228.087 38.1322C227.358 37.4723 226.539 36.9137 225.654 36.4719C223.46 35.2716 221.228 34.147 219.143 32.756C213.54 29.0065 214.223 21.2017 219.739 17.7775C222.183 16.2602 224.86 15.5002 227.703 15.2114C232.442 14.7318 237.023 15.5255 241.538 16.8548C241.951 16.9754 242.057 17.0847 241.899 17.5138C241.22 19.3564 240.563 21.2101 239.946 23.0751C239.782 23.5658 239.587 23.5294 239.2 23.3555C236.376 22.0527 233.284 21.4003 230.161 21.4485C228.646 21.4849 227.169 21.7289 225.887 22.6039C225.342 22.9437 224.926 23.4491 224.703 24.0423C224.48 24.6356 224.463 25.284 224.653 25.8879C224.9 26.5652 225.367 27.1451 225.981 27.5398C227.31 28.5157 228.83 29.1748 230.284 29.9544C232.064 30.8627 233.762 31.9152 235.362 33.101C240.089 36.7692 239.61 43.7579 235.075 47.3083C232.149 49.594 228.724 50.5082 225.081 50.8335C224.166 50.9121 223.256 50.9261 222.789 50.9485Z" fill="#114185"/>
<path d="M253.732 50.9485C249.576 50.9092 245.452 50.2346 241.509 48.9489C241.053 48.8003 240.936 48.6685 241.105 48.1973C241.753 46.2959 242.367 44.3833 242.964 42.465C243.107 41.9995 243.251 41.9322 243.715 42.1509C247.535 43.9681 251.841 44.5665 256.027 43.8616C256.924 43.7239 257.784 43.4111 258.555 42.9418C260.457 41.7555 260.689 39.5764 259.082 38.0508C258.409 37.4589 257.66 36.9546 256.854 36.5504C254.559 35.2772 252.175 34.1386 250.015 32.6242C245.032 29.1046 245.652 22.7357 248.698 19.5386C250.752 17.3876 253.345 16.2322 256.222 15.6124C260.041 14.771 263.856 14.973 267.668 15.6629C269.275 15.9433 270.847 16.3696 272.419 16.7846C272.941 16.9277 273.13 17.0791 272.909 17.6624C272.247 19.4208 271.644 21.1988 271.059 22.9909C270.895 23.4817 270.732 23.5518 270.239 23.3414C267.452 22.0623 264.407 21.4115 261.329 21.4372C259.894 21.4625 258.509 21.67 257.258 22.4048C256.073 23.0975 255.474 24.1043 255.652 25.4897C255.763 26.3703 256.306 26.9844 256.988 27.4892C258.423 28.5521 260.072 29.2532 261.633 30.0946C263.411 31.0565 265.167 32.0577 266.719 33.3505C271.068 36.9963 270.577 43.7551 266.214 47.2326C263.87 49.1032 261.151 50.0735 258.216 50.5755C256.733 50.811 255.235 50.9357 253.732 50.9485Z" fill="#114185"/>
<path d="M140.086 42.6922C139.94 43.5335 139.57 44.2879 139.297 45.0816C138.778 46.5932 138.225 48.0908 137.711 49.6052C137.673 49.7566 137.587 49.8924 137.466 49.9932C137.344 50.094 137.193 50.1545 137.034 50.1661C133.592 50.727 130.112 51.0831 126.615 50.8251C121.397 50.4409 116.922 48.5815 113.847 44.2346C111.678 41.1722 110.912 37.6918 111.105 34.0264C111.426 27.9127 114.076 22.9096 118.962 19.0787C121.762 16.8856 125.055 15.8087 128.563 15.36C132.906 14.7582 137.328 15.0167 141.566 16.12C142.375 16.3359 143.156 16.6388 143.95 16.8912C144.237 16.981 144.312 17.1015 144.206 17.4072C143.529 19.3423 142.857 21.283 142.223 23.2321C142.083 23.6612 141.885 23.5742 141.601 23.4649C139.575 22.6529 137.431 22.1615 135.247 22.0093C130.522 21.7485 126.414 23.0189 123.465 26.8639C120.703 30.4676 120.276 36.4523 123.233 40.07C125.072 42.3136 127.499 43.5027 130.379 43.8308C133.486 44.1842 136.489 43.598 139.455 42.7651C139.644 42.7118 139.837 42.6754 140.029 42.6305L140.086 42.6922Z" fill="#114185"/>
<path d="M172.789 42.6529C172.129 44.5095 171.372 46.3464 170.829 48.2422C170.436 49.6248 169.774 50.281 168.23 50.4325C163.927 50.8531 159.625 51.3243 155.322 50.2109C148.555 48.4525 144.134 43.1745 143.767 36.3149C143.365 28.8606 146.285 22.904 152.427 18.4982C155.009 16.65 158.021 15.775 161.165 15.374C165.507 14.7742 169.927 15.0317 174.166 16.1312C174.952 16.3415 175.706 16.6556 176.489 16.8772C176.899 16.995 176.911 17.1773 176.776 17.5278C176.119 19.404 175.468 21.2802 174.857 23.1704C174.711 23.6219 174.536 23.6051 174.16 23.4648C171.154 22.3431 168.078 21.7345 164.834 22.0626C159.323 22.6403 155.129 26.202 154.071 31.4435C153.308 35.2267 154.008 38.6874 157.092 41.3657C159.55 43.4971 162.542 44.0916 165.729 43.9093C167.977 43.7646 170.199 43.3501 172.344 42.6754C172.473 42.6529 172.588 42.5491 172.789 42.6529Z" fill="#114185"/>
<path d="M63.5056 34.9351L27.7711 0V5.36212L58.0207 34.9351L58.0322 34.9463L31.8302 60.5622L31.7987 60.5313L5.61389 34.9351L5.59094 34.9126L18.4452 22.3459H12.8658L0 34.9239L0.0114748 34.9351L31.7872 66L31.7987 65.9888L63.5342 34.9631L63.5056 34.9351Z" fill="#FE6309"/>
<path d="M27.7597 9.0528V14.4149L48.7609 34.9463L31.8417 51.487L14.9083 34.9351L14.8853 34.9127L27.7396 22.3459H22.1601L9.29437 34.9239L9.30585 34.9351L29.0391 54.2269L31.7987 56.9248L34.6042 54.1849L54.2629 34.9631L27.7597 9.0528Z" fill="#FE6309"/>
<path d="M45.0001 34.9351L34.521 24.6792L31.7327 21.9533L28.9903 24.6343L18.4567 34.9239L28.996 45.2274L31.7557 47.9253L34.5554 45.1854L45.0288 34.9631L45.0001 34.9351ZM31.8044 42.5071L24.0591 34.9351L24.0362 34.9127L31.7614 27.3603L39.5067 34.9323L31.8044 42.5071Z" fill="#FE6309"/>
</svg>
