<svg width="248" height="73" viewBox="0 0 248 73" fill="none" xmlns="http://www.w3.org/2000/svg">
<g clip-path="url(#clip0)">
<path fill-rule="evenodd" clip-rule="evenodd" d="M35.1844 0.185858C34.8403 0.385361 33.9592 1.25905 33.3244 2.0308C32.4037 3.14965 32.1042 3.50675 31.837 3.80507C31.6826 3.97705 31.2343 4.51678 30.84 5.00397C30.4457 5.49116 29.9528 6.07778 29.7451 6.30668C29.5368 6.53621 29.1828 6.95835 28.9577 7.24479C28.732 7.53185 28.4251 7.89771 28.2751 8.05844C28.1257 8.21854 28.0029 8.37114 28.0029 8.39678C28.0029 8.42242 27.9211 8.52686 27.8219 8.62881C27.7227 8.73075 27.4319 9.06721 27.1758 9.37616C26.9204 9.68511 26.6296 10.0241 26.5304 10.1291C26.4306 10.2342 26.3494 10.3387 26.3494 10.3618C26.3494 10.3849 26.2111 10.5613 26.0425 10.7539L25.7349 11.1042L24.2079 10.9697C23.3684 10.8959 21.8556 10.7664 20.8469 10.682C19.8381 10.5976 18.1871 10.4587 17.1783 10.3737C11.7403 9.91589 11.7911 9.91651 10.9715 10.3418C10.6212 10.5238 10.4315 10.7152 10.2511 11.0685C9.82947 11.8953 9.82885 11.844 10.2827 17.3294C10.367 18.347 10.5046 20.0124 10.589 21.0299C10.6727 22.0475 10.8022 23.5728 10.8766 24.4202C11.0099 25.93 11.0087 25.9625 10.8016 26.1063C10.6857 26.1864 10.4234 26.4084 10.2188 26.5985C9.83505 26.9569 9.73647 27.0413 8.78105 27.8306C8.46919 28.0882 8.02837 28.4704 7.80083 28.6799C7.57391 28.8894 7.15541 29.2471 6.87083 29.4741C6.58687 29.7012 6.22417 30.0107 6.06483 30.1621C5.90549 30.3134 5.73127 30.4373 5.67733 30.4373C5.62339 30.4373 5.57875 30.4723 5.57875 30.5154C5.57813 30.558 5.20675 30.8982 4.75291 31.2709C4.29907 31.6437 3.92707 31.9839 3.92707 32.0264C3.92645 32.0696 3.86011 32.1046 3.77951 32.1046C3.69891 32.1046 3.61769 32.1471 3.59909 32.1996C3.57987 32.2515 3.21655 32.5874 2.79185 32.9451C2.36653 33.3035 1.96539 33.6481 1.89905 33.7106C1.83333 33.7732 1.46939 34.1015 1.09057 34.4398C-0.427812 35.7945 -0.440832 37.191 1.05275 38.5437C1.28897 38.7576 1.55495 39.0065 1.64485 39.0972C1.73413 39.1879 2.20285 39.5857 2.68583 39.9815C3.16881 40.3768 3.58731 40.7276 3.61583 40.7608C3.64435 40.7939 4.15585 41.2342 4.75291 41.7389C5.34935 42.2436 5.85341 42.6977 5.87201 42.7483C5.89123 42.7996 5.96873 42.8409 6.04437 42.8409C6.12001 42.8409 6.19751 42.8822 6.21673 42.9334C6.23533 42.9841 6.59989 43.3162 7.02583 43.6714C7.45239 44.0266 8.07549 44.5595 8.41091 44.8559C8.74633 45.1524 9.14561 45.4882 9.29813 45.6033C9.45065 45.7177 9.90015 46.1042 10.2963 46.462L11.0168 47.1124L10.8866 48.2337C10.8146 48.851 10.7551 49.6134 10.7539 49.9286C10.7526 50.2438 10.6813 51.2288 10.5952 52.1175C10.509 53.0062 10.3701 54.5778 10.2858 55.6097C10.2021 56.6417 10.0849 58.072 10.0254 58.7887C9.71973 62.4811 10.3552 63.2272 13.573 62.9551C14.2631 62.8969 15.6649 62.7794 16.6879 62.6937C18.4109 62.5492 21.6839 62.264 24.4627 62.0164C25.5948 61.9157 26.0394 61.9826 26.0394 62.2534C26.0394 62.2972 26.1206 62.4179 26.2204 62.5217C26.3196 62.6255 26.6104 62.962 26.8658 63.2684C27.1219 63.5755 27.4238 63.932 27.5379 64.0602C27.8181 64.376 28.3836 65.0608 29.0389 65.8764C29.3384 66.2491 29.6378 66.6012 29.7054 66.6581C29.773 66.7157 30.1469 67.1616 30.5375 67.6488C31.1984 68.4737 31.54 68.8783 31.9343 69.3011C32.0217 69.3955 32.3008 69.7307 32.5537 70.0459C33.0813 70.7039 33.0125 70.6232 33.8929 71.6169C35.3369 73.248 37.1783 73.5144 38.0333 72.2161C38.1021 72.1116 38.8008 71.2824 39.1059 70.9421C39.2224 70.812 39.5268 70.4549 39.7829 70.1479C40.0383 69.8414 40.3291 69.505 40.4283 69.4011C40.5281 69.2973 40.6094 69.1885 40.6094 69.1597C40.6094 69.131 40.6906 69.0228 40.7904 68.919C40.8896 68.8151 41.1804 68.478 41.4358 68.171C41.6919 67.8633 41.9827 67.5393 42.0819 67.4505C42.1811 67.3623 42.2629 67.2297 42.2629 67.1566C42.2629 67.0828 42.2976 67.0227 42.3404 67.0227C42.3826 67.0227 42.6504 66.7313 42.9344 66.3754C43.2183 66.0202 43.5674 65.6056 43.7094 65.4542C43.9741 65.1722 44.046 65.0865 44.8458 64.1027C45.1013 63.7888 45.4398 63.3904 45.5985 63.2184C45.7572 63.0464 46.0598 62.6787 46.2706 62.401L46.6544 61.8957L47.1708 61.9576C47.4554 61.9914 48.0828 62.0451 48.5658 62.0764C49.0488 62.1071 50.3973 62.2221 51.5629 62.3316C52.7279 62.441 54.5879 62.6049 55.6958 62.6956C56.8044 62.7869 58.2471 62.9082 58.9018 62.9657C62.3125 63.2647 62.7719 62.4523 62.2666 57.0169C62.1785 56.0707 62.0353 54.429 61.9485 53.3683C61.8617 52.3076 61.6943 50.4614 61.5765 49.265C61.4587 48.0686 61.4011 47.0574 61.4482 47.0173C61.4959 46.9773 61.7898 46.7365 62.1017 46.4826C62.4135 46.2281 62.7626 45.9235 62.8767 45.8053C62.9907 45.6871 63.4099 45.33 63.8079 45.011C64.2053 44.6921 64.6492 44.3193 64.7943 44.183C64.9388 44.0467 65.3108 43.7246 65.6208 43.4669C65.9308 43.2092 66.2364 42.951 66.3003 42.8934C66.3642 42.8359 66.6388 42.6013 66.911 42.3718C67.1826 42.1423 67.456 41.9078 67.518 41.8502C67.58 41.7927 67.8869 41.5369 68.1994 41.2817C68.5118 41.0266 68.8423 40.7452 68.9334 40.657C69.2211 40.378 69.6781 39.9897 70.2658 39.5256C73.2071 37.2041 73.2288 35.9708 70.3694 33.5768C69.9434 33.2197 69.4784 32.8225 69.3358 32.6931C69.1938 32.5642 68.6842 32.1327 68.2037 31.7343C67.7232 31.336 67.2117 30.8988 67.0672 30.7625C66.9228 30.6261 66.5024 30.2684 66.1329 29.9682C65.7634 29.6674 65.3424 29.3096 65.1979 29.1733C64.9685 28.9575 64.4707 28.5341 63.5593 27.7793C63.4204 27.6642 63.222 27.4885 63.1185 27.3884C63.0143 27.2877 62.9089 27.2058 62.8841 27.2058C62.8593 27.2058 62.6386 27.0238 62.3937 26.8018C62.1482 26.5791 61.8152 26.2846 61.6528 26.1464L61.3577 25.8949L61.5709 23.8142C61.6875 22.6697 61.8568 20.7954 61.9467 19.649C62.0366 18.5021 62.1816 16.8135 62.2691 15.8966C62.7961 10.3768 62.3676 9.7389 58.3829 10.1073C57.7858 10.1623 56.3908 10.2805 55.2829 10.3699C53.2828 10.5307 51.1636 10.712 48.2242 10.9741L46.6947 11.1104L46.2123 10.5325C45.9469 10.2148 45.6276 9.83771 45.503 9.69449C45.3778 9.55128 45.0827 9.19917 44.8458 8.91274C44.2798 8.22667 43.5804 7.39551 43.4508 7.25354C43.3938 7.19163 43.1377 6.8833 42.8823 6.56935C42.6268 6.25477 42.3249 5.88328 42.2108 5.74319C42.0974 5.60373 41.9343 5.41235 41.8494 5.31854C41.7638 5.22411 41.4402 4.84511 41.1289 4.47613C40.8183 4.10714 40.4606 3.68812 40.3347 3.5449C40.2088 3.40168 39.8189 2.93263 39.4679 2.50235C39.1164 2.0727 38.7878 1.70496 38.7376 1.68558C38.6874 1.66681 38.6458 1.61115 38.6458 1.56237C38.6458 1.41915 37.6687 0.449153 37.2899 0.215877C36.833 -0.064929 35.6463 -0.0818149 35.1844 0.185858ZM36.9011 9.98093C37.2502 10.4256 37.5763 10.8046 37.6259 10.824C37.6755 10.8427 37.7158 10.9015 37.7158 10.9541C37.7158 11.0066 37.7977 11.1354 37.8969 11.2405C38.3327 11.7008 38.7494 12.2236 38.7494 12.3106C38.7494 12.3625 38.7872 12.4044 38.8331 12.4044C38.8789 12.4044 39.1437 12.7171 39.4214 13.0986C40.4432 14.5026 40.6924 14.6665 41.1909 14.2656C41.2554 14.2137 41.744 13.9447 42.2759 13.6677C42.8085 13.3906 43.4998 13.011 43.8117 12.824C44.1241 12.6376 44.4726 12.4425 44.5867 12.3912C44.7007 12.3399 45.1664 12.0898 45.6208 11.8359C46.0759 11.582 46.4752 11.3712 46.5087 11.3681C46.5676 11.3624 46.6742 11.677 46.9817 12.7696C47.2886 13.8591 47.4628 14.4557 47.6364 15.0104C47.735 15.3256 47.8851 15.8184 47.9694 16.1049C48.0543 16.3913 48.2068 16.8935 48.3085 17.2212L48.4933 17.816L49.3303 17.7609C49.7909 17.7303 50.654 17.6371 51.2492 17.5539C51.8438 17.4701 52.8897 17.3569 53.5742 17.3013C54.258 17.2462 54.9493 17.1724 55.1099 17.138L55.4019 17.0749L55.3393 17.9448C55.2823 18.7353 55.2197 19.372 54.8737 22.6716C54.7106 24.2201 54.6728 24.1032 55.4119 24.3252C55.7671 24.4315 56.3133 24.6016 56.6258 24.7017C57.306 24.9206 57.9508 25.1126 59.4679 25.5491C60.0929 25.7286 60.7315 25.9218 60.8865 25.9794L61.1686 26.0832L60.7408 26.8787C60.5058 27.3165 60.1604 27.9563 59.9744 28.3002C59.7878 28.6442 59.515 29.1602 59.3668 29.4466C59.2193 29.7337 58.993 30.1558 58.8646 30.3847C58.7363 30.6142 58.4784 31.082 58.2911 31.4248L57.9508 32.0477L58.244 32.2953C58.4058 32.4317 58.6365 32.6268 58.7574 32.7294C58.8783 32.8313 59.2949 33.1665 59.6837 33.4742C60.0718 33.7813 60.5076 34.144 60.6521 34.2791C60.7966 34.4142 61.1121 34.6681 61.3533 34.8438C61.5951 35.0196 61.7929 35.2016 61.7929 35.2497C61.7929 35.2973 61.8623 35.336 61.9479 35.336C62.0328 35.336 62.1029 35.3736 62.1029 35.4198C62.1029 35.4661 62.3801 35.7119 62.7186 35.9671C63.4619 36.5262 63.4526 36.4593 62.8506 36.9221C62.5803 37.1303 62.243 37.4011 62.1017 37.5237C61.5238 38.0234 61.3998 38.1266 60.6558 38.7251C60.2299 39.0684 59.8343 39.4005 59.7779 39.4631C59.7209 39.5262 59.3811 39.8002 59.0227 40.0728C57.8906 40.9346 57.9123 40.8827 58.3476 41.6851C58.5528 42.0629 58.8423 42.6064 58.9911 42.8928C59.1393 43.1798 59.2869 43.4375 59.3185 43.4663C59.3501 43.4951 59.4691 43.7058 59.5826 43.9353C59.9763 44.7296 60.8902 46.4376 61.0309 46.6427C61.2399 46.9454 61.212 46.9936 60.7854 47.0717C60.5721 47.1105 60.2348 47.2012 60.0358 47.2737C59.8374 47.3457 59.3024 47.5064 58.8479 47.6308C58.3928 47.7553 57.8584 47.9198 57.6594 47.9961C57.4603 48.0724 56.9953 48.2156 56.6258 48.3144C56.2563 48.4132 55.7789 48.5589 55.565 48.6377C55.3505 48.7172 55.0833 48.7822 54.9704 48.7822C54.7292 48.7822 54.7218 48.8917 54.8663 50.2738C55.1304 52.7967 55.2817 54.3258 55.3412 55.0782L55.4063 55.9018L54.8539 55.8305C54.5501 55.7911 53.7893 55.7161 53.1644 55.6642C52.5394 55.6116 51.6788 55.5222 51.2529 55.4653C50.8263 55.4084 50.0303 55.3314 49.4834 55.2945L48.4889 55.227L48.3612 55.5747C48.2905 55.7661 48.1963 56.0863 48.1517 56.2871C48.1064 56.4878 48.0215 56.7924 47.9626 56.9644C47.903 57.1364 47.6879 57.8399 47.4833 58.5279C47.2793 59.2158 47.0493 59.9901 46.9724 60.2477C46.8955 60.506 46.7784 60.9188 46.712 61.1652C46.5719 61.6849 46.5136 61.6843 45.5694 61.1508C45.2569 60.9738 44.8384 60.7424 44.6394 60.6355C44.4403 60.5292 43.9524 60.2609 43.5544 60.0407C43.1563 59.82 42.4824 59.4597 42.0558 59.2402C41.6299 59.0207 41.2566 58.8087 41.2275 58.7693C40.8574 58.2758 40.5957 58.4272 39.569 59.7268C39.0935 60.3284 38.6775 60.8444 38.644 60.8731C38.6111 60.9019 38.3073 61.2759 37.9688 61.7037C37.6309 62.1315 37.2843 62.5548 37.1994 62.6449C37.1138 62.735 36.8813 63.0283 36.6829 63.2972C36.1906 63.9614 36.221 63.9733 35.2879 62.7494C35.0033 62.3772 34.7014 62.0007 34.6158 61.9138C34.5309 61.8269 34.2054 61.4279 33.8935 61.0276C33.581 60.6274 33.2556 60.2208 33.17 60.1239C33.0844 60.027 32.7819 59.6436 32.4979 59.2715C32.2133 58.8994 31.9207 58.5692 31.8469 58.5373C31.7322 58.4872 30.7365 58.9288 30.5858 59.0964C30.5579 59.1276 30.2783 59.289 29.9658 59.4547C29.6533 59.6205 29.0488 59.9457 28.6229 60.1777C28.1963 60.4103 27.6619 60.6943 27.4344 60.8087C27.2068 60.9238 26.9979 61.0439 26.9694 61.0758C26.9408 61.1077 26.6742 61.2596 26.3773 61.4141L25.8372 61.6937L25.7188 61.2578C25.6531 61.0176 25.5421 60.6336 25.4714 60.4041C25.3288 59.9432 25.1645 59.3778 24.6977 57.7461C24.5253 57.1445 24.3189 56.4409 24.2389 56.1826C24.1589 55.9249 24.064 55.5803 24.0287 55.4177C23.9853 55.2182 23.9159 55.1401 23.8173 55.1782C23.7361 55.2095 23.3083 55.2626 22.8656 55.2958C22.4229 55.3296 21.4563 55.4227 20.7179 55.5041C18.2379 55.7761 17.0339 55.8893 16.9991 55.8536C16.9799 55.8343 17.032 55.2082 17.1145 54.4628C17.7214 49.0024 17.7357 48.7822 17.4852 48.7822C17.3792 48.7822 17.0872 48.7172 16.8355 48.6384C16.5837 48.5589 16.0989 48.4107 15.7579 48.3082C15.4169 48.2062 14.8818 48.0411 14.5694 47.9417C14.2569 47.8429 13.7218 47.6796 13.3808 47.5789C13.0398 47.4789 12.586 47.3332 12.3715 47.2556C12.1569 47.1781 11.8984 47.1143 11.7967 47.1143C11.421 47.1143 11.2499 46.8835 11.4105 46.5933C11.4898 46.4501 11.6783 46.098 11.8296 45.8115C11.9802 45.5251 12.2096 45.103 12.3392 44.8734C12.4682 44.6439 12.7844 44.0579 13.0417 43.5707C13.9208 41.9047 14.0523 41.6639 14.1478 41.5482C14.4819 41.1423 14.3958 40.8952 13.7255 40.3393C13.3653 40.0409 12.9549 39.6964 12.8129 39.5738C12.6709 39.4506 12.2289 39.0953 11.8308 38.7839C11.4334 38.4718 11.0471 38.156 10.9727 38.0809C10.8983 38.0065 10.5499 37.7245 10.1977 37.4549C9.18529 36.6788 9.01355 36.4868 9.20327 36.3423C9.81211 35.8783 10.713 35.1684 10.8066 35.079C10.868 35.0196 11.1197 34.8069 11.3658 34.6062C11.612 34.4054 11.8637 34.194 11.9257 34.1359C11.9871 34.0777 12.2468 33.867 12.5029 33.6675C12.7583 33.4686 13.0609 33.2184 13.1744 33.1127C13.2878 33.0064 13.578 32.7763 13.8185 32.5999C14.3976 32.1771 14.428 32.0201 14.0616 31.3591C13.8917 31.0526 13.635 30.5673 13.4906 30.2809C13.3467 29.9938 12.9946 29.3372 12.7081 28.8212C12.4223 28.3053 12.1166 27.7424 12.0298 27.5704C11.9424 27.3984 11.7372 27.0025 11.5735 26.6898C11.235 26.0438 11.2424 25.9963 11.7031 25.9043C11.8872 25.8674 12.2468 25.7705 12.5029 25.6886C12.7583 25.6066 13.4558 25.3978 14.0529 25.2245C14.6493 25.0519 15.4169 24.8211 15.7579 24.7123C16.0989 24.6035 16.6693 24.4277 17.0258 24.3227L17.6743 24.1307L17.6167 23.4015C17.5466 22.5234 17.3005 20.1168 17.1045 18.3989C17.0258 17.7115 16.9694 17.1418 16.9799 17.133C17.0066 17.1087 18.7333 17.2838 20.7179 17.5108C21.6839 17.6221 22.8104 17.7378 23.2215 17.7691L23.9686 17.826L24.0318 17.5389C24.0672 17.3807 24.1552 17.0636 24.2277 16.8347C24.3003 16.6052 24.4336 16.1593 24.5241 15.8441C24.8304 14.7753 25.3251 13.0842 25.4696 12.6133C25.5483 12.355 25.6426 11.9922 25.6791 11.8065C25.7721 11.3324 25.8515 11.318 26.4721 11.6645C26.7741 11.8334 27.3699 12.1486 27.7958 12.3656C28.2224 12.5826 28.6353 12.809 28.714 12.869C28.892 13.0048 30.4531 13.8628 31.1823 14.2262C31.8202 14.5439 31.8624 14.5289 32.4601 13.7596C32.705 13.4444 32.9648 13.1486 33.0373 13.1029C33.1098 13.0573 33.1694 12.9516 33.1694 12.8684C33.1694 12.7852 33.2066 12.7171 33.2512 12.7171C33.2965 12.7171 33.5023 12.4944 33.7081 12.2224C33.914 11.9497 34.2029 11.5863 34.3505 11.4144C34.498 11.2424 34.9556 10.6707 35.3666 10.1442C36.27 8.98716 36.1324 9.00217 36.9011 9.98093ZM171.581 16.2875C171.383 16.5151 171.377 16.724 171.349 23.3245L171.321 30.1277L170.781 29.7199C170.21 29.289 168.902 28.6261 168.381 28.5048C168.21 28.4647 167.862 28.3715 167.606 28.2971C166.5 27.9763 164.759 27.8043 163.147 27.8568C161.389 27.9144 160.482 28.0732 158.978 28.5873C157.455 29.1076 155.322 30.5867 154.568 31.6449C154.388 31.8982 154.203 32.1046 154.155 32.1046C154.108 32.1046 154.069 32.1752 154.069 32.2609C154.069 32.3472 154.035 32.4179 153.992 32.4179C153.92 32.4185 153.723 32.7156 153.37 33.3554C153.155 33.7444 152.451 35.4542 152.382 35.7532C152.349 35.8964 152.227 36.3655 152.111 36.7951C151.307 39.7852 151.391 45.951 152.272 48.5252C152.351 48.7566 152.418 49.0142 152.42 49.0987C152.421 49.1825 152.513 49.4389 152.623 49.6684C152.733 49.8973 152.824 50.1193 152.826 50.1612C152.837 50.4114 153.868 52.3245 153.992 52.3257C154.035 52.3257 154.069 52.3802 154.069 52.4458C154.069 53.2345 157.976 56.2871 158.985 56.2871C159.073 56.2871 159.229 56.3315 159.329 56.3859C160.32 56.9206 164.265 57.0963 166.418 56.7023C168.51 56.319 169.469 55.9456 170.617 55.0663L171.304 54.5403L171.344 55.1795C171.416 56.3052 171.371 56.2871 174.139 56.2871C176.355 56.2871 176.505 56.2745 176.699 56.0788C176.905 55.8718 176.906 55.7311 176.906 35.9614V16.053H174.346C171.82 16.053 171.783 16.0561 171.581 16.2875ZM209.763 16.3682C209.426 16.7084 209.499 50.8229 209.84 51.973C210.845 55.3733 212.877 56.5998 217.508 56.5998C219.921 56.5998 219.729 56.8149 219.765 54.0612C219.801 51.297 219.89 51.4571 218.288 51.3839C216.859 51.3182 216.293 51.1656 215.821 50.7178C215.089 50.0236 215.139 51.3564 215.139 32.8325V16.1568H212.556C210.099 16.1568 209.962 16.1674 209.763 16.3682ZM102.952 17.5965C102.489 17.7866 101.783 18.3595 101.783 18.5452C101.783 18.6077 101.742 18.6584 101.692 18.6584C101.577 18.6584 101.066 19.7278 100.595 20.9518C100.496 21.2094 100.376 21.5146 100.329 21.6291C100.283 21.7441 100.144 22.0956 100.021 22.4108C99.8981 22.726 99.7586 23.0781 99.7109 23.1926C99.6631 23.3077 99.523 23.6591 99.4003 23.9743C99.2775 24.2895 99.014 24.9462 98.8137 25.434C98.6141 25.9212 98.4126 26.4134 98.3655 26.5285C98.319 26.6429 98.1801 26.995 98.0573 27.3102C97.9352 27.6254 97.7957 27.9769 97.7473 28.092C97.6996 28.2064 97.5613 28.5585 97.4404 28.8737C97.3195 29.1889 97.1608 29.5873 97.0876 29.7593C96.9686 30.0395 96.6288 30.865 96.4013 31.4273C96.3548 31.5417 96.2159 31.8938 96.0925 32.209C95.9692 32.5242 95.8036 32.9301 95.7255 33.1109C95.6468 33.2916 95.5829 33.4867 95.5829 33.5455C95.5829 33.6037 95.5141 33.7844 95.4304 33.9464C95.2791 34.2391 95.1954 34.4392 94.7626 35.5443C94.6393 35.8595 94.4967 36.2116 94.4464 36.326C94.3224 36.6075 93.646 38.2854 93.3962 38.9321C93.2858 39.2185 93.1562 39.5469 93.1097 39.662C93.0626 39.7764 92.9448 40.081 92.8475 40.3393C92.7501 40.5969 92.61 40.949 92.5368 41.121C92.2845 41.7102 91.675 43.2055 91.4537 43.779C91.3316 44.0942 91.1933 44.4463 91.1462 44.5607C91.0991 44.6752 90.9794 44.9804 90.8802 45.2381C90.781 45.4963 90.6396 45.8478 90.5665 46.0198C90.3538 46.517 89.7326 48.0517 89.4902 48.6778C89.368 48.993 89.2298 49.3451 89.1826 49.4595C89.1361 49.5746 89.0165 49.8792 88.9173 50.1375C88.8181 50.3951 88.6773 50.7472 88.6042 50.9192C88.5316 51.0912 88.3922 51.4427 88.2948 51.701C88.1975 51.9586 88.0356 52.3576 87.9352 52.5865C87.8348 52.8161 87.6029 53.3789 87.42 53.8373C87.2377 54.2964 87.017 54.8455 86.9302 55.0575C86.8434 55.2701 86.7665 55.6222 86.7597 55.8393L86.7479 56.2351L89.2794 56.2645C90.6719 56.2802 91.9075 56.2695 92.026 56.2408C92.2771 56.1789 92.4624 55.8186 93.2616 53.8373C93.4699 53.3214 93.6795 52.8054 93.7279 52.691C93.7756 52.5765 93.9151 52.2244 94.0379 51.9092C94.1606 51.594 94.3001 51.2419 94.3485 51.1275C94.3975 51.013 94.5574 50.614 94.7044 50.2413C94.8513 49.8685 95.0137 49.4702 95.064 49.3557C95.4707 48.437 95.8929 47.3663 95.8929 47.2519C95.8929 47.1374 97.2854 47.118 103.856 47.1399L111.819 47.1668L111.958 47.427C112.035 47.5708 112.268 48.1099 112.478 48.6259C112.687 49.1418 112.919 49.7047 112.991 49.8767C113.064 50.0487 113.205 50.4001 113.304 50.6584C113.596 51.4177 113.637 51.5215 113.849 52.0137C113.961 52.2713 114.156 52.7404 114.283 53.0556C114.41 53.3708 114.574 53.7698 114.645 53.9418C114.717 54.1138 114.93 54.6297 115.118 55.0882C115.655 56.4028 115.348 56.2946 118.463 56.2627C121.707 56.2295 121.587 56.3771 120.436 53.8373C120.357 53.6654 120.128 53.0975 119.925 52.5753C119.723 52.0524 119.461 51.3958 119.343 51.1156C119.07 50.4639 119 50.2919 118.78 49.7203C118.681 49.462 118.54 49.1105 118.468 48.9386C118.395 48.7666 118.256 48.4145 118.158 48.1568C118.061 47.8985 117.943 47.5939 117.895 47.4795C117.848 47.3644 117.686 46.966 117.536 46.5933C117.386 46.2206 117.204 45.7753 117.132 45.6033C117.06 45.4313 116.919 45.0792 116.819 44.8215C116.719 44.5632 116.577 44.2118 116.504 44.0398C116.432 43.8678 116.292 43.5157 116.195 43.258C116.097 42.9997 115.98 42.6952 115.933 42.5801C115.886 42.4656 115.678 41.9497 115.471 41.4337C114.998 40.2561 114.708 39.5419 114.54 39.1404C114.467 38.9684 114.329 38.6169 114.231 38.3586C114.133 38.1009 113.989 37.7376 113.911 37.5512C113.833 37.3648 113.706 37.0597 113.627 36.8733C113.549 36.6869 113.405 36.3236 113.306 36.0659C113.098 35.5187 112.785 34.7488 112.503 34.0852C112.28 33.5593 112.217 33.4004 111.964 32.73C111.867 32.4723 111.727 32.1202 111.655 31.9482C111.581 31.7762 111.452 31.4479 111.366 31.219C111.205 30.7887 110.549 29.1658 110.312 28.6129C110.239 28.441 110.099 28.0895 110.001 27.8312C109.904 27.5729 109.764 27.2214 109.691 27.0494C109.618 26.8775 109.476 26.5254 109.377 26.2677C109.277 26.0094 109.137 25.6579 109.066 25.4859C108.995 25.3139 108.811 24.848 108.656 24.4509C108.501 24.0538 108.338 23.6548 108.293 23.5647C108.248 23.4746 108.13 23.1901 108.032 22.9324C107.934 22.6741 107.794 22.3226 107.721 22.1507C107.648 21.9787 107.509 21.6266 107.411 21.3689C107.314 21.1106 107.196 20.806 107.148 20.691C107.101 20.5765 106.939 20.1788 106.788 19.8073C105.987 17.8347 104.484 16.9686 102.952 17.5965ZM104.195 28.0138C104.3 28.2859 104.448 28.6492 104.525 28.8212C104.601 28.9932 104.879 29.6736 105.143 30.3328C105.407 30.992 105.808 31.977 106.035 32.5217C106.558 33.7775 106.547 33.7506 106.996 34.867C107.53 36.1928 108.159 37.7263 108.46 38.4368C108.799 39.2392 108.897 39.4793 109.065 39.9221C109.163 40.1804 109.291 40.4819 109.349 40.5926C109.407 40.7033 109.491 40.9146 109.535 41.0616C109.579 41.2092 109.648 41.4118 109.688 41.5119C109.757 41.6845 109.444 41.6945 103.963 41.6945C97.7374 41.6945 97.9811 41.7158 98.2656 41.1979C98.3202 41.0985 98.5347 40.5944 98.7424 40.0785C98.9501 39.5625 99.3426 38.6013 99.6148 37.9421C99.8869 37.2823 100.279 36.321 100.487 35.8051C100.695 35.2891 100.903 34.7732 100.95 34.6587C100.996 34.5437 101.116 34.2391 101.216 33.9808C101.315 33.7231 101.492 33.301 101.607 33.0427C101.723 32.785 101.854 32.4798 101.898 32.3654C102.025 32.0327 102.721 30.3134 102.878 29.9419C103.19 29.2096 103.314 28.9075 103.487 28.4566C103.914 27.3465 103.933 27.3346 104.195 28.0138ZM232.138 27.7893C230.806 27.8925 228.5 28.4647 227.281 28.9951C226.387 29.3834 225.354 29.9044 225.266 30.0101C225.237 30.0445 225.092 30.1364 224.942 30.214C224.516 30.4354 223.949 30.9857 223.87 31.2553C223.8 31.4954 224.073 32.416 224.216 32.4185C224.253 32.4192 224.377 32.6187 224.49 32.8619C224.602 33.1046 224.723 33.3272 224.759 33.3554C224.794 33.3842 225.018 33.7682 225.257 34.2084C225.878 35.356 226.133 35.3917 227.467 34.5193C228.168 34.0615 228.412 33.9314 229.296 33.5461C230.655 32.9526 231.885 32.7369 233.894 32.7381C234.804 32.7387 235.734 32.7794 235.961 32.8282C236.188 32.8776 236.617 32.9676 236.914 33.0289C239.195 33.5005 240.655 35.4374 240.54 37.8377L240.508 38.515L235.651 38.5763C229.714 38.6513 228.911 38.7758 226.42 40.0147C221.297 42.5601 220.525 50.8367 225.046 54.7404C225.366 55.0169 225.66 55.2433 225.7 55.2439C225.74 55.2445 225.979 55.3852 226.232 55.5572C226.484 55.7292 226.726 55.8699 226.768 55.8699C226.81 55.8699 227.036 55.9581 227.27 56.065C229.729 57.1951 234.48 57.2308 237.098 56.1388C238.096 55.7223 239.526 54.8805 239.526 54.7092C239.526 54.6598 239.576 54.6191 239.637 54.6191C239.698 54.6191 239.915 54.4315 240.119 54.2026C240.523 53.7485 240.663 53.6873 240.663 53.9649C240.663 56.005 241.82 56.6048 245.752 56.6016L247.999 56.5998V54.4759C247.999 52.0387 248.037 52.1363 247.071 52.0212C245.955 51.8886 246.045 52.5897 246.002 43.7271C245.96 35.4148 245.917 34.842 245.181 32.9389C243.658 28.9982 239.209 27.2414 232.138 27.7893ZM191.889 27.8806C191.804 27.9019 191.362 27.9719 190.908 28.037C189.194 28.2821 186.944 29.0764 186.301 29.663C186.211 29.7449 186.104 29.8118 186.061 29.8118C185.95 29.8118 184.751 30.7518 184.468 31.0614C184.336 31.2052 184.031 31.5342 183.79 31.7919C183.167 32.4586 182.669 33.2591 181.912 34.8151C180.217 38.2948 180.054 45.5533 181.586 49.3557C182.111 50.659 183.027 52.3264 183.218 52.3264C183.27 52.3264 183.313 52.3789 183.313 52.444C183.313 52.5972 185.007 54.3064 185.159 54.3064C185.224 54.3064 185.276 54.3477 185.276 54.3977C185.276 54.6979 187.914 55.9937 189.409 56.429C191.739 57.1063 195.416 57.1026 197.883 56.4209C199.259 56.04 200.981 55.3521 201.274 55.0656C201.349 54.9918 201.453 54.9318 201.504 54.9318C201.774 54.9318 203.338 53.7148 204.263 52.7835C205.699 51.3401 205.705 51.2325 204.42 50.0687C203.923 49.619 203.395 49.1343 203.247 48.9905C202.094 47.876 201.91 47.8779 200.775 49.0149C198.171 51.6253 193.977 52.4471 190.395 51.0499C189.942 50.8729 189.523 50.6903 189.465 50.6428C189.406 50.5959 189.212 50.4395 189.033 50.2951C188.854 50.1512 188.68 50.033 188.645 50.033C188.381 50.033 187.22 48.4889 186.878 47.6821C186.593 47.0104 186.198 45.617 186.253 45.4745C186.293 45.3694 188.209 45.3425 195.676 45.3425C202.65 45.3425 205.136 45.3106 205.389 45.2187C205.851 45.0504 205.871 44.8991 205.792 42.2342C205.706 39.3361 205.518 37.9684 204.936 36.0133C204.679 35.149 204.11 33.892 203.701 33.2841C203.57 33.089 203.463 32.8845 203.463 32.83C203.463 32.775 203.419 32.73 203.366 32.73C203.313 32.73 203.241 32.6387 203.206 32.5267C202.871 31.4617 199.747 29.2108 197.642 28.5179C196.21 28.0463 192.77 27.6655 191.889 27.8806ZM135.831 28.0657C133.652 28.3634 131.442 29.4985 130.156 30.982L129.683 31.528V30.2034V28.8787L129.367 28.7143C128.86 28.4497 124.73 28.531 124.423 28.8112L124.206 29.0101V42.4763C124.206 55.3896 124.214 55.9493 124.395 56.1144C124.672 56.3671 129.271 56.3752 129.52 56.1232C129.665 55.9775 129.683 55.0882 129.683 47.9073C129.683 38.4187 129.684 38.4024 130.595 36.4824C132.59 32.2766 139.674 32.0458 141.664 36.1222C142.561 37.9602 142.592 38.3536 142.596 47.8472C142.599 54.8943 142.618 55.8505 142.76 56.0557C142.919 56.2839 142.955 56.2871 145.37 56.2839L147.818 56.2808L148.002 56.0244C148.244 55.6898 148.223 37.9365 147.979 36.6388C147.644 34.8495 147.061 33.316 146.251 32.0902C145.791 31.3941 144.64 30.1245 144.47 30.1245C144.42 30.1245 144.351 30.0539 144.319 29.9682C144.286 29.8819 144.188 29.8118 144.101 29.8118C144.014 29.8118 143.943 29.7681 143.943 29.7143C143.943 29.6611 143.85 29.5873 143.736 29.5511C143.624 29.5148 143.471 29.4297 143.399 29.3616C143.16 29.1383 142.34 28.7724 141.153 28.3609C140.083 27.99 137.452 27.8443 135.831 28.0657ZM166.469 32.9676C166.839 33.1033 167.28 33.2891 167.451 33.3804C167.621 33.4723 167.908 33.6249 168.089 33.72C169.162 34.286 170.563 36.1378 171.144 37.7601C171.498 38.7464 171.506 45.8353 171.155 46.9123C169.194 52.9211 161.532 53.9981 158.228 48.7278C158.157 48.6146 158.052 48.4045 157.993 48.2613C157.936 48.118 157.847 47.9066 157.797 47.7922C157.257 46.5639 157.067 45.1567 157.07 42.4237C157.075 38.4818 157.65 36.56 159.391 34.6737C161.038 32.8888 164.188 32.1296 166.469 32.9676ZM194.731 32.9883C198.049 33.523 200.009 35.7144 200.359 39.2811C200.522 40.9409 201.406 40.762 193.194 40.7308L186.154 40.7039L186.188 39.8702C186.238 38.6319 186.874 36.5524 187.414 35.8582C189.268 33.478 191.744 32.5067 194.731 32.9883ZM240.396 43.1123C240.644 43.2086 240.637 47.2468 240.388 48.0005C239.996 49.1831 239.167 50.3295 238.338 50.8367C237.668 51.2463 236.763 51.604 235.789 51.8436C234.3 52.2107 230.573 51.9761 230.076 51.4852C230.022 51.4314 229.916 51.3883 229.84 51.3883C229.548 51.3883 228.323 50.3676 228.15 49.9811C228.099 49.866 228.016 49.7022 227.965 49.6159C227.632 49.0443 227.539 48.6152 227.539 47.654C227.539 44.7502 229.269 43.37 233.171 43.158C234.91 43.0635 240.184 43.0304 240.396 43.1123Z" fill="#345CDC"/>
</g>
<defs>
<clipPath id="clip0">
<rect width="248" height="73" fill="white"/>
</clipPath>
</defs>
</svg>
