<svg width="248" height="67" viewBox="0 0 248 67" fill="none" xmlns="http://www.w3.org/2000/svg">
<path d="M50.3843 24.9801H60.1883V14.2955H50.3843V24.9801Z" fill="#322B31"/>
<path d="M0 51.549H9.2698V40.8644H0V51.549Z" fill="#322B31"/>
<path d="M11.9577 67H21.8995V27.8688H11.9577V67Z" fill="#9C7161"/>
<path d="M37.7546 67H47.6964V54.4377H37.7546V67Z" fill="#9C7161"/>
<path d="M0 24.9801H35.0667V14.2955H0V24.9801Z" fill="#322B31"/>
<path d="M37.7546 37.9757H47.6964V0H37.7546V37.9757Z" fill="#9C7161"/>
<path d="M24.5874 51.549H60.1883V40.8644H24.5874V51.549Z" fill="#322B31"/>
<path d="M108.746 41.6088L104.301 29.9465L99.8554 41.6088H108.746ZM101.003 20.4396H107.792L122.131 56.6635H114.442L111.382 48.5973H97.2123L94.1626 56.6635H86.6572L101.003 20.4396Z" fill="#322B31"/>
<path d="M142.114 38.1646C143.931 38.1646 145.326 37.7016 146.297 36.7757C146.78 36.3129 147.162 35.7406 147.414 35.1002C147.666 34.4597 147.783 33.767 147.755 33.0722V32.9611C147.755 31.2477 147.245 29.9638 146.225 29.1095C145.205 28.2552 143.786 27.8269 141.969 27.8244H134.653V38.1498L142.114 38.1646ZM127.296 20.6952H142.593C146.832 20.6952 150.082 21.9111 152.345 24.3431C154.257 26.3973 155.212 29.1379 155.212 32.5649V32.6686C155.212 35.5795 154.551 37.951 153.227 39.783C151.889 41.628 150.09 43.0266 148.041 43.8161L156.215 56.6635H147.6L140.429 45.1568H134.653V56.6635H127.293L127.296 20.6952Z" fill="#322B31"/>
<path d="M162.191 56.6598H169.551V20.6989H162.191V56.6598Z" fill="#322B31"/>
<path d="M194.046 57.2783C191.602 57.3114 189.176 56.8399 186.899 55.8895C184.828 55.0206 182.941 53.7105 181.354 52.0379C179.794 50.3698 178.566 48.3775 177.746 46.1826C176.868 43.8285 176.429 41.3118 176.454 38.7756V38.6719C176.422 35.0154 177.406 31.4318 179.28 28.3793C181.153 25.3268 183.831 22.9441 186.971 21.5358C189.195 20.5345 191.586 20.0305 193.997 20.0544C195.366 20.0435 196.733 20.155 198.084 20.3877C199.248 20.5935 200.392 20.9121 201.503 21.3396C202.537 21.7418 203.531 22.2581 204.466 22.8802C205.407 23.5095 206.302 24.214 207.144 24.9875L202.506 30.9983C201.899 30.4416 201.26 29.927 200.593 29.4576C199.964 29.018 199.3 28.6399 198.608 28.3281C197.891 28.0101 197.147 27.7694 196.385 27.6096C195.519 27.432 194.638 27.3464 193.756 27.354C192.458 27.3442 191.175 27.6519 190.003 28.254C188.85 28.8464 187.812 29.6683 186.943 30.6761C186.05 31.708 185.349 32.9134 184.876 34.2277C184.376 35.6151 184.124 37.0916 184.135 38.5793V38.683C184.119 40.2387 184.37 41.7843 184.876 43.242C185.344 44.5903 186.059 45.8242 186.978 46.8715C187.881 47.898 188.97 48.7136 190.179 49.2676C191.473 49.8478 192.864 50.1365 194.266 50.1157C197.007 50.1157 199.318 49.3911 201.2 47.9418V42.7569H193.791V35.9573H208.322V51.5749C206.47 53.2372 204.4 54.5963 202.178 55.608C199.604 56.7617 196.835 57.3303 194.046 57.2783Z" fill="#322B31"/>
<path d="M234.616 41.6088L230.17 29.9465L225.725 41.6088H234.616ZM226.872 20.4433H233.675L248 56.6635H240.305L237.245 48.5973H223.096L220.036 56.6635H212.53L226.872 20.4433Z" fill="#322B31"/>
</svg>
