<svg width="68" height="68" viewBox="0 0 68 68" fill="none" xmlns="http://www.w3.org/2000/svg">
<circle cx="34" cy="34" r="34" fill="#F2F4F7"/>
<g clip-path="url(#clip0)">
<path d="M37.2302 41.8853C36.7929 41.8853 36.3619 41.8095 35.9488 41.6596L34.0123 40.9568L32.0767 41.6633C31.662 41.8146 31.2287 41.8913 30.789 41.8913C29.4551 41.8913 28.211 41.1733 27.5422 40.0174L27.5297 39.9956L27.536 48.1231C27.536 48.8239 27.9217 49.4609 28.5425 49.7857C28.8171 49.9293 29.1156 50.0003 29.4129 50.0003C29.7879 50.0003 30.1611 49.8873 30.4822 49.6645L33.9779 47.2378L37.4735 49.6645C38.0491 50.064 38.7924 50.1105 39.4132 49.7857C40.0341 49.4609 40.4198 48.8239 40.4198 48.1231V40.1071C39.7386 41.2069 38.5275 41.8853 37.2302 41.8853Z" fill="#111F4D"/>
<path d="M44.4744 26.2085L42.3715 24.4472L41.8927 21.7462C41.7335 20.8485 40.9568 20.1975 40.0453 20.1975C40.0448 20.1975 40.0441 20.1975 40.0435 20.1975L37.3005 20.1999L35.1976 18.4389C34.4983 17.8531 33.4838 17.854 32.7855 18.441L30.6858 20.2061L27.9427 20.2087C27.0305 20.2096 26.254 20.8623 26.0964 21.7608L25.6225 24.4626L23.5229 26.2278C22.8246 26.8148 22.6493 27.8139 23.1062 28.6035L24.4799 30.9779L24.0061 33.6796C23.8484 34.5781 24.3564 35.4562 25.214 35.7674L27.7925 36.7033L29.1662 39.0776C29.5101 39.6718 30.1352 40.0149 30.7889 40.0149C31.0037 40.0149 31.2216 39.9778 31.4336 39.9005L34.0104 38.96L36.5889 39.8957C37.4463 40.2067 38.3993 39.8591 38.8547 39.0687L40.2241 36.6918L42.8009 35.7513C43.6578 35.4385 44.1642 34.5595 44.005 33.6613L43.5261 30.9603L44.8955 28.5834C45.3509 27.793 45.1738 26.7942 44.4744 26.2085ZM33.9998 34.6543C31.0168 34.6543 28.59 32.2275 28.59 29.2445C28.59 26.2615 31.0168 23.8347 33.9998 23.8347C36.9828 23.8347 39.4097 26.2615 39.4097 29.2445C39.4097 32.2275 36.9828 34.6543 33.9998 34.6543Z" fill="#111F4D"/>
<path d="M37.2712 30.5995C38.0186 28.7963 37.1628 26.7286 35.3596 25.9812C33.5564 25.2338 31.4887 26.0897 30.7412 27.8929C29.9938 29.6961 30.8497 31.7637 32.6529 32.5112C34.4561 33.2586 36.5238 32.4027 37.2712 30.5995Z" fill="#111F4D"/>
</g>
<defs>
<clipPath id="clip0">
<rect width="32" height="32" fill="white" transform="translate(18 18)"/>
</clipPath>
</defs>
</svg>
