<svg width="24" height="24" viewBox="0 0 24 24" fill="none" xmlns="http://www.w3.org/2000/svg">
<path d="M24 0H0V24H24V0Z" fill="#0071B9"/>
<path d="M19.4694 6.90393H14.7923V8.06735H19.4694V6.90393Z" fill="white"/>
<path d="M21.3308 13.4428C21.3308 13.6527 21.3225 13.8547 21.3057 14.0478H15.3042H15.2902C15.2344 15.3741 16.2023 16.1634 17.303 16.1634C18.083 16.1634 18.7685 15.7497 19.1636 15.0484H21.1326C20.5922 17.0202 19.0048 17.8406 17.1308 17.8406C14.6759 17.8406 12.9307 15.8716 12.9307 13.4428C12.9307 11.014 14.8113 9.04504 17.1308 9.04504C19.4503 9.04504 21.3308 11.014 21.3308 13.4428ZM15.2902 12.5795H18.99C18.8429 11.4869 18.0709 10.7902 17.1401 10.7902C16.2093 10.7901 15.4373 11.4868 15.2902 12.5795Z" fill="white"/>
<path d="M12.2094 13.6288C12.3607 15.3158 12.0582 16.3629 10.3363 17.2123C9.69175 17.5301 8.88385 17.6297 8.12572 17.6297H2.66919V6.15955C2.66919 6.15955 7.92798 6.15955 8.67257 6.15955C9.41717 6.15955 11.7171 6.60165 11.7301 8.81222C11.739 10.3405 10.8738 11.0391 10.1511 11.3737C10.1511 11.3736 12.0582 11.9419 12.2094 13.6288ZM9.75179 14.1142C9.75179 12.5045 7.93403 12.5464 7.93403 12.5464H5.19389V15.6821H7.93403C7.93403 15.6821 9.75179 15.724 9.75179 14.1142ZM9.30084 9.45207C9.30084 8.10248 7.77673 8.1374 7.77673 8.1374H5.19389V10.7668H7.77673C7.77673 10.7668 9.30084 10.8017 9.30084 9.45207Z" fill="white"/>
</svg>
