<svg width="68" height="68" viewBox="0 0 68 68" fill="none" xmlns="http://www.w3.org/2000/svg">
<circle cx="34" cy="34" r="34" fill="#F2F4F7"/>
<path d="M42 35C40.8133 35 39.6533 35.3519 38.6666 36.0112C37.6799 36.6705 36.9109 37.6075 36.4567 38.7039C36.0026 39.8003 35.8838 41.0067 36.1153 42.1705C36.3468 43.3344 36.9182 44.4035 37.7574 45.2426C38.5965 46.0818 39.6656 46.6532 40.8295 46.8847C41.9933 47.1162 43.1997 46.9974 44.2961 46.5433C45.3925 46.0891 46.3295 45.3201 46.9888 44.3334C47.6481 43.3467 48 42.1867 48 41C47.9982 39.4092 47.3655 37.8842 46.2407 36.7593C45.1158 35.6345 43.5907 35.0018 42 35ZM45.416 38.7774L41.416 44.7774C41.375 44.8389 41.3208 44.8906 41.2574 44.9287C41.1939 44.9667 41.1229 44.9903 41.0492 44.9976C41.0328 44.9992 41.0164 45 40.9999 45C40.8673 45 40.7402 44.9473 40.6464 44.8536L38.6464 42.8536C38.5527 42.7598 38.5 42.6326 38.5 42.5C38.5 42.3674 38.5527 42.2402 38.6464 42.1464C38.7402 42.0527 38.8674 42 39 42C39.1326 42 39.2598 42.0527 39.3536 42.1464L40.9223 43.7152L44.584 38.2226C44.6579 38.1131 44.7721 38.0372 44.9018 38.0117C45.0314 37.9861 45.1659 38.0129 45.2759 38.0862C45.3858 38.1595 45.4623 38.2734 45.4885 38.4029C45.5148 38.5324 45.4887 38.667 45.416 38.7774Z" fill="#111F4D"/>
<path d="M42 34C42.3346 34.0001 42.6688 34.0241 43 34.0718V28.5C42.9995 28.1023 42.8414 27.7211 42.5601 27.4399C42.2789 27.1586 41.8977 27.0005 41.5 27H30.5C30.3674 27 30.2402 26.9473 30.1464 26.8536C30.0527 26.7598 30 26.6326 30 26.5V22.5C29.9995 22.1023 29.8414 21.7211 29.5601 21.4399C29.2789 21.1586 28.8977 21.0005 28.5 21H21.5C21.1023 21.0005 20.7211 21.1586 20.4399 21.4399C20.1586 21.7211 20.0005 22.1023 20 22.5V42.5C20.0005 42.8977 20.1586 43.2789 20.4399 43.5601C20.7211 43.8414 21.1023 43.9995 21.5 44H35.6763C35.1698 42.9331 34.9415 41.7555 35.0127 40.5766C35.0839 39.3978 35.4523 38.2562 36.0835 37.258C36.7147 36.2599 37.5882 35.4377 38.6227 34.868C39.6572 34.2984 40.819 33.9997 42 34Z" fill="#111F4D"/>
<path d="M43 26.5014V25.4688C42.9995 25.0711 42.8414 24.6898 42.5601 24.4086C42.2789 24.1274 41.8977 23.9692 41.5 23.9688H31V26H41.5C42.0412 25.9994 42.5679 26.1755 43 26.5014Z" fill="#111F4D"/>
</svg>
