<svg width="24" height="24" viewBox="0 0 24 24" fill="none" xmlns="http://www.w3.org/2000/svg">
<path d="M12 23.1691C18.2132 23.1691 23.25 18.1323 23.25 11.9191C23.25 5.70586 18.2132 0.669067 12 0.669067C5.7868 0.669067 0.75 5.70586 0.75 11.9191C0.75 18.1323 5.7868 23.1691 12 23.1691Z" fill="#EC407A"/>
<path d="M12 0C5.3835 0 0 5.3835 0 12C0 18.6165 5.3835 24 12 24C18.6165 24 24 18.6165 24 12C24 5.3835 18.6165 0 12 0ZM22.4955 12.09C19.9545 11.4195 17.349 11.3415 14.8665 11.853C14.5275 11.007 14.1615 10.1745 13.7685 9.3525C16.014 8.3025 18.09 6.879 19.911 5.1195C21.5175 6.963 22.5 9.366 22.5 12C22.5 12.03 22.4955 12.0585 22.4955 12.09ZM18.8505 4.0605C17.1495 5.703 15.2145 7.041 13.1175 8.019C11.997 5.874 10.686 3.825 9.2025 1.89C10.095 1.6425 11.0295 1.5 12 1.5C14.6175 1.5 17.01 2.469 18.8505 4.0605ZM7.7205 2.421C9.243 4.359 10.5795 6.423 11.718 8.5845C8.568 9.7875 5.148 10.2495 1.7235 9.849C2.418 6.525 4.692 3.78 7.7205 2.421ZM1.5 12C1.5 11.775 1.5195 11.5545 1.5345 11.334C2.4225 11.439 3.3105 11.508 4.1955 11.508C7.0185 11.508 9.792 10.956 12.3915 9.9435C12.7515 10.6935 13.0905 11.454 13.404 12.225C9.717 13.332 6.432 15.693 4.221 19.0275C2.5365 17.1645 1.5 14.703 1.5 12ZM5.3175 20.0925C7.3515 16.8945 10.4535 14.64 13.944 13.62C14.892 16.23 15.5745 18.9405 15.972 21.714C14.7465 22.218 13.4055 22.5 12 22.5C9.4635 22.5 7.134 21.5955 5.3175 20.0925ZM17.379 21C16.9665 18.357 16.3125 15.7695 15.417 13.272C17.6835 12.846 20.055 12.9465 22.365 13.599C21.8805 16.743 20.004 19.425 17.379 21Z" fill="#C2185B"/>
</svg>
