<svg width="68" height="68" viewBox="0 0 68 68" fill="none" xmlns="http://www.w3.org/2000/svg">
<circle cx="34" cy="34" r="34" fill="#F2F4F7"/>
<g clip-path="url(#clip0)">
<path d="M34 30.9143C37.003 30.9143 39.4375 28.4799 39.4375 25.4768C39.4375 22.4738 37.003 20.0393 34 20.0393C30.997 20.0393 28.5625 22.4738 28.5625 25.4768C28.5625 28.4799 30.997 30.9143 34 30.9143Z" fill="#111F4D"/>
<path d="M45 30.9143C46.8985 30.9143 48.4375 29.3753 48.4375 27.4768C48.4375 25.5783 46.8985 24.0393 45 24.0393C43.1015 24.0393 41.5625 25.5783 41.5625 27.4768C41.5625 29.3753 43.1015 30.9143 45 30.9143Z" fill="#111F4D"/>
<path d="M23 30.9143C24.8985 30.9143 26.4375 29.3753 26.4375 27.4768C26.4375 25.5783 24.8985 24.0393 23 24.0393C21.1015 24.0393 19.5625 25.5783 19.5625 27.4768C19.5625 29.3753 21.1015 30.9143 23 30.9143Z" fill="#111F4D"/>
<path d="M26.3869 34.001C25.0338 32.8924 23.8083 33.0391 22.2438 33.0391C19.9038 33.0391 18 34.9316 18 37.2573V44.0829C18 45.0929 18.8244 45.9141 19.8381 45.9141C24.2148 45.9141 23.6875 45.9933 23.6875 45.7254C23.6875 40.8888 23.1146 37.3418 26.3869 34.001Z" fill="#111F4D"/>
<path d="M35.4881 33.0641C32.7554 32.8362 30.3801 33.0667 28.3313 34.7579C24.9027 37.5041 25.5625 41.2018 25.5625 45.7254C25.5625 46.9222 26.5363 47.9141 27.7513 47.9141C40.9439 47.9141 41.4689 48.3397 42.2513 46.6072C42.5078 46.0214 42.4375 46.2075 42.4375 40.6029C42.4375 36.1512 38.5829 33.0641 35.4881 33.0641Z" fill="#111F4D"/>
<path d="M45.7562 33.0392C44.1831 33.0392 42.9644 32.894 41.6131 34.0011C44.8609 37.3171 44.3125 40.622 44.3125 45.7255C44.3125 45.9951 43.8748 45.9142 48.0962 45.9142C49.1462 45.9142 50 45.0636 50 44.018V37.2574C50 34.9317 48.0962 33.0392 45.7562 33.0392Z" fill="#111F4D"/>
</g>
<defs>
<clipPath id="clip0">
<rect width="32" height="32" fill="white" transform="translate(18 18)"/>
</clipPath>
</defs>
</svg>
