<svg width="270" height="67" viewBox="0 0 270 67" fill="none" xmlns="http://www.w3.org/2000/svg">
<path d="M52.9222 0.155536L10.173 0H10.1157C7.42988 0 4.91507 0.93122 2.97178 2.69037C1.02893 4.39767 0 6.72592 0 9.15746V57.8425C0 60.2741 1.02893 62.6023 2.97178 64.3096C4.85822 66.0169 7.42988 67 10.1161 67H10.1734L52.9227 66.8963V64.5685C52.9227 52.6169 47.8362 41.7007 39.4919 33.5778C48.179 25.0927 52.9227 14.1757 52.9227 2.53523V0.155137L52.9222 0.155536ZM21.5467 22.2468C16.4602 20.3844 10.9732 19.1943 5.20105 18.9355V18.8318C13.2025 17.7462 19.5457 11.9519 20.6319 4.70834L31.3764 4.76019C30.7476 11.538 27.2611 17.7462 21.5463 22.2476L21.5467 22.2468ZM6.6301 6.00129C7.54446 5.17336 8.80164 4.70755 10.1161 4.70755H15.3172C14.3455 9.41589 10.2875 13.1408 5.14421 14.1238V9.15746C5.20105 7.96742 5.71574 6.82921 6.6301 6.00168V6.00129ZM5.20105 48.1674V38.4405C19.0892 39.5787 30.176 49.6677 31.3768 62.2398L20.6323 62.2917C19.4893 54.9966 13.2025 49.2538 5.20105 48.167V48.1674ZM10.1734 62.2917C8.85893 62.2917 7.60174 61.8258 6.68738 60.9979C5.77258 60.1704 5.25834 59.0318 5.25834 57.8421V52.9272C10.4021 53.9099 14.4597 57.5833 15.4313 62.2913H10.1734V62.2917ZM47.6648 62.188L36.5202 62.2398C35.263 47.0811 21.8895 34.9226 5.14421 33.7325V23.6438C28.0618 24.8339 46.4076 41.4933 47.6648 62.1888V62.188ZM35.7768 30.2665C32.9539 28.0248 29.8688 26.0645 26.5755 24.4199C32.4049 19.1947 35.9482 12.2618 36.577 4.75979L47.7216 4.81164C47.0928 14.3312 42.9211 23.2303 35.7768 30.2665Z" fill="url(#paint0_linear)"/>
<path d="M117.352 24.8909C115.095 23.8014 112.547 23.2825 109.71 23.2825C106.816 23.2825 104.21 23.8532 101.952 24.9946C99.6944 26.1356 97.9576 27.6917 96.7417 29.6631C95.5258 31.6344 94.9467 33.8649 94.9467 36.3547C94.9467 38.1701 95.2945 39.934 96.0472 41.4901C96.7417 43.0981 97.7258 44.4469 98.9994 45.6402C100.329 46.8309 101.928 47.7508 103.689 48.3373C105.633 48.9922 107.692 49.3262 109.768 49.3232C112.605 49.3232 115.152 48.8043 117.41 47.7148C119.668 46.6256 121.405 45.0695 122.679 43.0981C123.953 41.1268 124.589 38.8444 124.589 36.3547C124.589 33.8131 123.953 31.5307 122.679 29.559C121.289 27.5362 119.553 25.98 117.352 24.8909ZM115.5 41.8531C113.936 43.3055 111.968 44.0318 109.652 44.0318C107.279 44.0318 105.31 43.3059 103.747 41.8012C102.184 40.2969 101.431 38.4815 101.431 36.3028C101.431 34.0723 102.184 32.2047 103.689 30.7522C105.195 29.2479 107.221 28.5217 109.652 28.5217C112.026 28.5217 113.936 29.2479 115.5 30.7004C117.063 32.1528 117.815 34.0204 117.815 36.3028C117.873 38.5334 117.121 40.4006 115.5 41.8531Z" fill="#102649"/>
<path fill-rule="evenodd" clip-rule="evenodd" d="M144.447 23.2825H143.637C141.9 23.2825 140.337 23.6454 138.774 24.372C137.211 25.0979 135.937 26.1356 134.837 27.4844H134.779V23.6977H128.294V48.9599H134.778V36.9772C134.778 35.5766 135.068 34.3834 135.647 33.2942C136.226 32.2047 137.152 31.3229 138.31 30.7004C139.468 30.0782 140.857 29.7153 142.479 29.7153C143.057 29.7153 143.695 29.7153 144.447 29.7671V23.2825H144.447Z" fill="#102649"/>
<path d="M166.853 26.6544H166.737C164.595 24.372 161.7 23.2307 157.995 23.2307C156.084 23.2307 154.29 23.5417 152.611 24.2165C150.932 24.8905 149.485 25.7727 148.269 26.9137C147.053 28.0551 146.126 29.4557 145.432 31.0637C144.737 32.7235 144.39 34.4352 144.39 36.3028C144.39 37.859 144.621 39.2596 145.026 40.6602C145.49 42.009 146.126 43.2018 146.937 44.2395C147.748 45.2768 148.732 46.1586 149.832 46.9367C150.932 47.7148 152.205 48.2855 153.595 48.6488C154.984 49.0117 156.49 49.2191 157.995 49.2191C161.816 49.2191 164.827 47.9744 166.969 45.4324H167.027V48.8043H173.221V23.5417H166.737V26.654H166.853V26.6544ZM164.769 41.9049C163.206 43.3055 161.295 44.0318 159.095 44.0318C156.721 44.0318 154.753 43.3059 153.248 41.9053C151.742 40.5047 150.989 38.6371 150.989 36.4065C150.989 35.2137 151.221 34.1241 151.626 33.1387C152.032 32.1528 152.611 31.3229 153.364 30.6485C154.108 29.9792 154.993 29.4501 155.968 29.0924C156.953 28.7294 157.995 28.5221 159.153 28.5221C161.469 28.5221 163.379 29.2997 164.885 30.8044C166.39 32.3088 167.142 34.176 167.142 36.4065C167.142 38.6371 166.332 40.5047 164.769 41.9053V41.9049ZM205.933 29.5594C205.353 28.5739 204.659 27.7436 203.848 26.9655C203.038 26.1878 202.111 25.513 201.127 24.9427C200.143 24.372 199.043 23.9569 197.827 23.6977C196.611 23.4384 195.396 23.2311 194.122 23.2311C190.358 23.2311 187.348 24.3716 185.148 26.6544H185.032V23.594H178.548V59.0753H185.032V45.7435H185.09C187.232 48.0777 190.185 49.2705 194.006 49.2705C195.569 49.2705 197.017 49.0631 198.406 48.7002C199.796 48.2855 201.069 47.7144 202.169 46.9881C203.269 46.2623 204.253 45.3283 205.064 44.291C205.875 43.2533 206.511 42.0604 206.975 40.7117C207.438 39.3629 207.611 37.9104 207.611 36.3543C207.611 35.1092 207.438 33.9164 207.148 32.7231C206.859 31.5303 206.511 30.5444 205.932 29.559L205.933 29.5594ZM198.869 41.9053C197.364 43.3055 195.396 44.0318 193.022 44.0318C190.706 44.0318 188.738 43.3059 187.174 41.9053C185.611 40.5047 184.801 38.6371 184.801 36.4065C184.801 34.1241 185.553 32.2569 187.116 30.7522C188.622 29.2479 190.648 28.5217 193.022 28.5217C195.337 28.5217 197.248 29.2479 198.811 30.7004C200.374 32.1528 201.127 34.0723 201.127 36.4065C201.127 38.6371 200.375 40.5047 198.869 41.9053ZM232.275 26.6544H232.159C230.017 24.372 227.122 23.2307 223.417 23.2307C221.506 23.2307 219.712 23.5417 218.033 24.2165C216.354 24.8905 214.906 25.7727 213.69 26.9137C212.474 28.0551 211.548 29.4557 210.854 31.0637C210.159 32.7235 209.811 34.4352 209.811 36.3028C209.811 37.859 210.043 39.2596 210.448 40.6602C210.911 42.009 211.548 43.2018 212.359 44.2395C213.169 45.2768 214.154 46.1586 215.254 46.9367C216.353 47.7148 217.627 48.2855 219.017 48.6488C220.407 49.0117 221.912 49.2191 223.417 49.2191C227.238 49.2191 230.248 47.9744 232.391 45.4324H232.448V48.8043H238.643V23.5417H232.159V26.654H232.275V26.6544ZM230.191 41.9049C228.627 43.3055 226.717 44.0318 224.517 44.0318C222.143 44.0318 220.175 43.3059 218.669 41.9053C217.164 40.5047 216.412 38.6371 216.412 36.4065C216.412 35.2137 216.643 34.1241 217.048 33.1387C217.453 32.1528 218.033 31.3229 218.785 30.6485C219.529 29.9791 220.415 29.45 221.39 29.0924C222.375 28.7294 223.417 28.5221 224.574 28.5221C226.891 28.5221 228.801 29.2997 230.306 30.8044C231.812 32.3088 232.564 34.176 232.564 36.4065C232.564 38.6371 231.754 40.5047 230.191 41.9053V41.9049Z" fill="#102649"/>
<path fill-rule="evenodd" clip-rule="evenodd" d="M262.844 23.6454L255.549 40.6602H255.491L247.733 23.6458H240.901L252.364 47.5074L247.27 59.1271H254.102L269.618 23.6458L262.844 23.6454ZM95.8153 23.6454H88.1728L76.6525 35.1618H76.537V12.4935H70.1103V48.9084H76.5366V42.9949L81.2838 38.2745H81.3997L88.6945 48.9084H95.9894L85.6841 33.8653L95.8153 23.6454Z" fill="#102649"/>
<defs>
<linearGradient id="paint0_linear" x1="47.8035" y1="69.2639" x2="11.3492" y2="28.3456" gradientUnits="userSpaceOnUse">
<stop stop-color="#5C33F3"/>
<stop offset="1" stop-color="#2CADFF"/>
</linearGradient>
</defs>
</svg>
