<svg width="76" height="36" viewBox="0 0 76 36" fill="none" xmlns="http://www.w3.org/2000/svg">
<path d="M16 2C7.18937 2 0 8.96592 0 17.5C0 26.0353 7.19063 33 16 33C24.8106 33 32 26.0341 32 17.5C32 8.96471 24.8094 2 16 2ZM16 31.1836C8.21144 31.1836 1.875 25.0452 1.875 17.5C1.875 9.95483 8.21144 3.81641 16 3.81641C23.7886 3.81641 30.125 9.95483 30.125 17.5C30.125 25.0452 23.7886 31.1836 16 31.1836Z" fill="#111F4D"/>
<path d="M12.5 4C5.6167 4 0 9.61768 0 16.5C0 23.3833 5.61768 29 12.5 29C19.3833 29 25 23.3823 25 16.5C25 9.6167 19.3823 4 12.5 4ZM12.5 27.5352C6.41519 27.5352 1.46484 22.5848 1.46484 16.5C1.46484 10.4152 6.41519 5.46484 12.5 5.46484C18.5848 5.46484 23.5352 10.4152 23.5352 16.5C23.5352 22.5848 18.5848 27.5352 12.5 27.5352Z" fill="#111F4D"/>
<circle cx="10.5" cy="17.5" r="5.5" fill="#E43A19"/>
<path d="M47.0482 26L43.0642 19.16H40.4242V26H38.2402V9.272H43.6402C44.9042 9.272 45.9682 9.488 46.8322 9.92C47.7122 10.352 48.3682 10.936 48.8002 11.672C49.2322 12.408 49.4482 13.248 49.4482 14.192C49.4482 15.344 49.1122 16.36 48.4402 17.24C47.7842 18.12 46.7922 18.704 45.4642 18.992L49.6642 26H47.0482ZM40.4242 17.408H43.6402C44.8242 17.408 45.7122 17.12 46.3042 16.544C46.8962 15.952 47.1922 15.168 47.1922 14.192C47.1922 13.2 46.8962 12.432 46.3042 11.888C45.7282 11.344 44.8402 11.072 43.6402 11.072H40.4242V17.408ZM75.0658 9.272L70.2177 26H67.7697L63.8817 12.536L59.8497 26L57.4257 26.024L52.7457 9.272H55.0737L58.7217 23.456L62.7537 9.272H65.2017L69.0417 23.408L72.7137 9.272H75.0658Z" fill="#111F4D"/>
</svg>
