<svg width="12" height="18" viewBox="0 0 12 18" fill="none" xmlns="http://www.w3.org/2000/svg">
<path d="M1.99108 8.87704e-05C2.24723 -0.00056352 2.50032 0.0418235 2.73175 0.124139C2.96319 0.206454 3.16708 0.326604 3.32846 0.475759L11.61 8.18932C11.8621 8.41935 12 8.70789 12 9.00567C12 9.30344 11.8621 9.59198 11.61 9.82202L3.03698 17.5356C2.74594 17.7981 2.32774 17.9632 1.87435 17.9946C1.42097 18.0259 0.969547 17.9209 0.619398 17.7027C0.269249 17.4845 0.0490542 17.1709 0.0072528 16.831C-0.0345486 16.491 0.105468 16.1526 0.396501 15.89L8.06074 8.99924L0.653693 2.10846C0.444026 1.91975 0.310842 1.68997 0.269898 1.44628C0.228954 1.2026 0.281964 0.955222 0.422657 0.733422C0.563349 0.511622 0.785836 0.324683 1.06379 0.194722C1.34174 0.0647612 1.66353 -0.00277991 1.99108 8.87704e-05Z" fill="#111F4D" fill-opacity="0.4"/>
</svg>
