<svg width="58" height="61" viewBox="0 0 58 61" fill="none" xmlns="http://www.w3.org/2000/svg">
<ellipse cx="28.5278" cy="30.3855" rx="28.5278" ry="30.3855" fill="#111F4D"/>
<path d="M27.1801 44.6186C26.1189 43.5593 25.2858 42.325 24.7029 40.9498C24.0992 39.525 23.7934 38.0131 23.7934 36.4548C23.7934 36.2655 23.7984 36.0768 23.8072 35.8888C22.7228 35.346 21.7349 34.6389 20.8636 33.7795C19.8031 32.7333 18.9662 31.5141 18.3764 30.154C18.0937 29.5033 17.8743 28.8326 17.7182 28.1475C17.6135 28.2095 17.5101 28.2735 17.4086 28.3399C14.7551 30.0599 13 33.0473 13 36.4448C13 41.776 17.3219 46.0973 22.6531 46.0973C24.1769 46.0973 25.618 45.7444 26.8992 45.115C27.0735 45.0298 27.2446 44.9395 27.4126 44.8436C27.3342 44.7696 27.2566 44.6944 27.1801 44.6186Z" fill="#F2F4F7"/>
<path d="M36.7146 41.0425C36.7159 41.0413 36.7185 41.0374 36.7223 41.0322C36.7172 41.0381 36.7153 41.0413 36.7146 41.0425Z" fill="#F2F4F7"/>
<path d="M32.7446 44.7367C32.7979 44.7133 32.8523 44.6901 32.9038 44.6785C32.9051 44.6778 32.9065 44.6771 32.9079 44.6765C32.7165 44.7037 32.6896 44.7413 32.7446 44.7367Z" fill="#F2F4F7"/>
<path d="M29.0142 29.177C27.4034 30.5824 26.2621 32.5126 25.8604 34.7046C26.815 35.0327 27.8374 35.2166 28.9022 35.2288C28.9404 35.2293 28.9776 35.2294 29.0157 35.2294C30.1184 35.2294 31.1786 35.0443 32.1673 34.7041C31.7659 32.5149 30.6258 30.5836 29.0142 29.177Z" fill="#F2F4F7"/>
<path d="M29.0157 37.11C28.9704 37.11 28.926 37.1098 28.8806 37.1093C27.7928 37.0968 26.7289 36.9355 25.7032 36.6293C25.7529 39.4576 27.0226 41.995 29.0138 43.7328C31.0029 41.9969 32.2737 39.4617 32.3239 36.6289C31.2555 36.9481 30.1473 37.11 29.0157 37.11Z" fill="#F2F4F7"/>
<path d="M38.5337 27.3161C37.5791 26.988 36.5567 26.8041 35.4919 26.7919C35.4537 26.7914 35.4165 26.7913 35.3784 26.7913C33.6352 26.7914 31.9974 27.2529 30.5823 28.0611C30.6622 28.1366 30.7416 28.2129 30.8197 28.2908C31.881 29.3503 32.7144 30.5847 33.2969 31.9596C33.5636 32.589 33.7719 33.2355 33.9217 33.8955C36.2933 32.4995 38.0196 30.1222 38.5337 27.3161Z" fill="#F2F4F7"/>
<path d="M22.6467 26.7913C21.5424 26.7913 20.4816 26.9763 19.4929 27.3163C20.0061 30.1156 21.7287 32.4986 24.1062 33.8973C24.2634 33.2039 24.4844 32.5256 24.7702 31.8671C25.3606 30.5071 26.1974 29.2873 27.2576 28.2418C27.3196 28.1806 27.3822 28.1204 27.4454 28.0608C26.031 27.2531 24.3929 26.7913 22.6467 26.7913Z" fill="#F2F4F7"/>
<path d="M37.9714 21.936C36.5366 18.3982 33.0665 15.9028 29.0134 15.9028C24.9604 15.9028 21.4902 18.3982 20.0554 21.936C19.6217 23.0048 19.3741 24.1681 19.3521 25.3873C20.4165 25.0708 21.5191 24.911 22.6467 24.911C24.2063 24.911 25.7201 25.2162 27.1461 25.8186C27.8017 26.095 28.4255 26.4298 29.0141 26.8184C29.6127 26.4229 30.2477 26.0838 30.9159 25.8042C32.3319 25.2112 33.8331 24.911 35.3782 24.911C35.424 24.911 35.4679 24.911 35.5136 24.9116C36.5955 24.9241 37.6536 25.0833 38.6747 25.3873C38.6527 24.1682 38.4052 23.0048 37.9714 21.936Z" fill="#F2F4F7"/>
<path d="M40.5914 28.3399C40.4899 28.2735 40.3865 28.2095 40.2818 28.1475C40.1257 28.8326 39.9063 29.5033 39.6236 30.154C39.0337 31.5141 38.1969 32.7333 37.1364 33.7795C36.2651 34.6389 35.2772 35.346 34.1928 35.8888C34.2016 36.0768 34.2066 36.2655 34.2066 36.4548C34.2066 38.0131 33.9007 39.525 33.2971 40.9498C32.7142 42.325 31.8811 43.5593 30.8199 44.6186C30.7434 44.6944 30.6658 44.7696 30.5874 44.8436C30.7554 44.9395 30.9265 45.0298 31.1007 45.115C32.382 45.7444 33.8231 46.0973 35.3469 46.0973C40.6781 46.0973 45 41.776 45 36.4448C45 33.0473 43.2449 30.0599 40.5914 28.3399Z" fill="#F2F4F7"/>
</svg>
