<svg width="63" height="61" viewBox="0 0 63 61" fill="none" xmlns="http://www.w3.org/2000/svg">
<ellipse cx="31.2792" cy="30.3855" rx="31.2792" ry="30.3855" fill="#111F4D"/>
<g clip-path="url(#clip0)">
<path d="M36.9702 44.1022H34.1049L33.6829 38.5269H28.317L27.8951 44.1022H25.0298C24.5057 44.1022 24.0808 44.527 24.0808 45.0512C24.0808 45.5753 24.5057 46 25.0298 46H36.9702C37.4943 46 37.9191 45.5752 37.9191 45.0511C37.9191 44.527 37.4943 44.1022 36.9702 44.1022Z" fill="#F2F4F7"/>
<path d="M40.3705 19.427V27.397C40.3705 27.7083 40.218 27.9999 39.9624 28.177L31.5409 34.0156C31.2285 34.2305 30.8076 34.2603 30.4484 34.008L22.0376 28.177C21.7821 27.9999 21.6296 27.7082 21.6296 27.397V19.427H17.7895C17.2654 19.427 16.8406 19.8518 16.8406 20.376V35.6798C16.8406 36.2039 17.2654 36.6288 17.7895 36.6288C18.4346 36.6288 44.5298 36.6288 44.2105 36.6288C44.7346 36.6288 45.1595 36.2039 45.1595 35.6798V20.376C45.1595 19.8518 44.7346 19.427 44.2105 19.427H40.3705Z" fill="#F2F4F7"/>
<path d="M30.051 31.4234V24.8142L23.5274 20.2915V26.9008L30.051 31.4234Z" fill="#F2F4F7"/>
<path d="M31.949 31.423L38.4726 26.9004V20.2905L31.949 24.8132V31.423Z" fill="#F2F4F7"/>
<path d="M31 23.162L37.7558 18.478C37.7558 18.478 31.5242 14.1574 31.5407 14.1688C31.2155 13.9434 30.7845 13.9434 30.4593 14.1688L24.2442 18.478L31 23.162Z" fill="#F2F4F7"/>
</g>
<defs>
<clipPath id="clip0">
<rect width="32" height="32" fill="white" transform="translate(15 14)"/>
</clipPath>
</defs>
</svg>
