<svg width="63" height="61" viewBox="0 0 63 61" fill="none" xmlns="http://www.w3.org/2000/svg">
<ellipse cx="31.2792" cy="30.3855" rx="31.2792" ry="30.3855" fill="#111F4D"/>
<path d="M15 15.9902V34.7515H47V15.9902H15ZM27.7464 28.7592L26.4206 30.0851L21.7056 25.3702L26.4206 20.6553L27.7464 21.9812L24.3574 25.3702L27.7464 28.7592ZM30.8312 31.0242L28.9921 30.6584L31.1688 19.716L33.0078 20.0819L30.8312 31.0242ZM35.5794 30.0851L34.2536 28.7592L37.6426 25.3702L34.2536 21.9812L35.5794 20.6553L40.2944 25.3702L35.5794 30.0851Z" fill="#F2F4F7"/>
<path d="M47 42.2565V36.6267H15V42.2565H25.2708V44.1345H23.3935V46.0096H38.6065V44.1345H36.7292V42.2565H47Z" fill="#F2F4F7"/>
</svg>
