<svg width="68" height="68" viewBox="0 0 68 68" fill="none" xmlns="http://www.w3.org/2000/svg">
<circle cx="34" cy="34" r="34" fill="#F2F4F7"/>
<path d="M19.875 19.875V18H18V25.8585H19.875V23.9835H22.6875V19.875H19.875Z" fill="#111F4D"/>
<path d="M48.125 18V19.875H45.3125V23.9835H48.125V25.8585H50V18H48.125Z" fill="#111F4D"/>
<path d="M24.5625 19.875H43.4375V23.9835H24.5625V19.875Z" fill="#111F4D"/>
<path d="M31.1562 42.2544L33.0625 41.6225V30.546H31.1562V42.2544Z" fill="#111F4D"/>
<path d="M27.375 43.5078L29.2812 42.8759V30.546H27.375V43.5078Z" fill="#111F4D"/>
<path d="M22.6875 50L34 46.25L45.3125 50V25.8585H22.6875V50ZM25.5 28.671H42.5V46.1047L34 43.287L25.5 46.1047V28.671Z" fill="#111F4D"/>
<path d="M36.8438 30.546H34.9375V41.6225L36.8438 42.2544V30.546Z" fill="#111F4D"/>
<path d="M40.625 30.546H38.7188V42.8759L40.625 43.5078V30.546Z" fill="#111F4D"/>
</svg>
